<svg width="214" height="97" viewBox="0 0 214 97" fill="none" xmlns="http://www.w3.org/2000/svg">
<line x1="14" y1="63" x2="214" y2="63" stroke="#DCDCDC" stroke-width="2"/>
<line x1="14" y1="63" x2="133" y2="63" stroke="black" stroke-width="2"/>
<circle cx="14" cy="63" r="8" fill="#EBEBEB" stroke="black" stroke-width="2"/>
<circle cx="133" cy="63" r="8" fill="#EBEBEB" stroke="black" stroke-width="2"/>
<path opacity="0.3" d="M4.56135 93.15C3.80135 93.15 3.16635 93.005 2.65635 92.715C2.14635 92.425 1.75635 92.025 1.48635 91.515C1.21635 90.995 1.06635 90.405 1.03635 89.745C1.02635 89.575 1.02135 89.36 1.02135 89.1C1.02135 88.83 1.02635 88.615 1.03635 88.455C1.06635 87.785 1.21635 87.195 1.48635 86.685C1.76635 86.175 2.16135 85.775 2.67135 85.485C3.18135 85.195 3.81135 85.05 4.56135 85.05C5.31135 85.05 5.94135 85.195 6.45135 85.485C6.96135 85.775 7.35135 86.175 7.62135 86.685C7.90135 87.195 8.05635 87.785 8.08635 88.455C8.09635 88.615 8.10135 88.83 8.10135 89.1C8.10135 89.36 8.09635 89.575 8.08635 89.745C8.05635 90.405 7.90635 90.995 7.63635 91.515C7.36635 92.025 6.97635 92.425 6.46635 92.715C5.95635 93.005 5.32135 93.15 4.56135 93.15ZM4.56135 91.995C5.18135 91.995 5.67635 91.8 6.04635 91.41C6.41635 91.01 6.61635 90.43 6.64635 89.67C6.65635 89.52 6.66135 89.33 6.66135 89.1C6.66135 88.87 6.65635 88.68 6.64635 88.53C6.61635 87.77 6.41635 87.195 6.04635 86.805C5.67635 86.405 5.18135 86.205 4.56135 86.205C3.94135 86.205 3.44135 86.405 3.06135 86.805C2.69135 87.195 2.49635 87.77 2.47635 88.53C2.46635 88.68 2.46135 88.87 2.46135 89.1C2.46135 89.33 2.46635 89.52 2.47635 89.67C2.49635 90.43 2.69135 91.01 3.06135 91.41C3.44135 91.8 3.94135 91.995 4.56135 91.995ZM12.3646 93C12.2646 93 12.1796 92.97 12.1096 92.91C12.0496 92.84 12.0196 92.755 12.0196 92.655V86.4H9.40963C9.30963 86.4 9.22463 86.37 9.15463 86.31C9.09463 86.24 9.06463 86.155 9.06463 86.055V85.545C9.06463 85.445 9.09463 85.365 9.15463 85.305C9.22463 85.235 9.30963 85.2 9.40963 85.2H16.0096C16.1096 85.2 16.1896 85.235 16.2496 85.305C16.3196 85.365 16.3546 85.445 16.3546 85.545V86.055C16.3546 86.155 16.3196 86.24 16.2496 86.31C16.1896 86.37 16.1096 86.4 16.0096 86.4H13.3996V92.655C13.3996 92.755 13.3696 92.84 13.3096 92.91C13.2496 92.97 13.1646 93 13.0546 93H12.3646ZM24.9772 93.15C24.2872 93.15 23.7022 93.045 23.2222 92.835C22.7522 92.615 22.3672 92.315 22.0672 91.935C21.7672 91.555 21.5472 91.12 21.4072 90.63C21.2772 90.14 21.2022 89.62 21.1822 89.07C21.1722 88.8 21.1622 88.515 21.1522 88.215C21.1522 87.915 21.1522 87.615 21.1522 87.315C21.1622 87.005 21.1722 86.71 21.1822 86.43C21.1922 85.88 21.2672 85.36 21.4072 84.87C21.5572 84.37 21.7772 83.935 22.0672 83.565C22.3672 83.185 22.7572 82.89 23.2372 82.68C23.7172 82.46 24.2972 82.35 24.9772 82.35C25.6672 82.35 26.2472 82.46 26.7172 82.68C27.1972 82.89 27.5872 83.185 27.8872 83.565C28.1872 83.935 28.4072 84.37 28.5472 84.87C28.6972 85.36 28.7772 85.88 28.7872 86.43C28.7972 86.71 28.8022 87.005 28.8022 87.315C28.8122 87.615 28.8122 87.915 28.8022 88.215C28.8022 88.515 28.7972 88.8 28.7872 89.07C28.7772 89.62 28.6972 90.14 28.5472 90.63C28.4072 91.12 28.1872 91.555 27.8872 91.935C27.5972 92.315 27.2122 92.615 26.7322 92.835C26.2622 93.045 25.6772 93.15 24.9772 93.15ZM24.9772 91.875C25.7572 91.875 26.3322 91.62 26.7022 91.11C27.0822 90.59 27.2772 89.885 27.2872 88.995C27.3072 88.705 27.3172 88.425 27.3172 88.155C27.3172 87.875 27.3172 87.6 27.3172 87.33C27.3172 87.05 27.3072 86.775 27.2872 86.505C27.2772 85.635 27.0822 84.94 26.7022 84.42C26.3322 83.89 25.7572 83.625 24.9772 83.625C24.2072 83.625 23.6322 83.89 23.2522 84.42C22.8822 84.94 22.6872 85.635 22.6672 86.505C22.6672 86.775 22.6622 87.05 22.6522 87.33C22.6522 87.6 22.6522 87.875 22.6522 88.155C22.6622 88.425 22.6672 88.705 22.6672 88.995C22.6872 89.885 22.8872 90.59 23.2672 91.11C23.6472 91.62 24.2172 91.875 24.9772 91.875Z" fill="black"/>
<path opacity="0.3" d="M103.783 90.65C103.683 90.65 103.598 90.615 103.528 90.545C103.468 90.485 103.438 90.405 103.438 90.305V88.145C103.438 88.045 103.468 87.965 103.528 87.905C103.598 87.835 103.683 87.8 103.783 87.8H103.858C104.128 87.79 104.358 87.64 104.548 87.35C104.738 87.05 104.883 86.585 104.983 85.955C105.083 85.315 105.133 84.485 105.133 83.465V81.545C105.133 81.445 105.163 81.365 105.223 81.305C105.293 81.235 105.378 81.2 105.478 81.2H110.263C110.363 81.2 110.443 81.235 110.503 81.305C110.573 81.365 110.608 81.445 110.608 81.545V87.77H111.313C111.423 87.77 111.508 87.805 111.568 87.875C111.628 87.935 111.658 88.015 111.658 88.115V90.305C111.658 90.405 111.628 90.485 111.568 90.545C111.508 90.615 111.423 90.65 111.313 90.65H110.608C110.508 90.65 110.423 90.615 110.353 90.545C110.293 90.485 110.263 90.405 110.263 90.305V89H104.833V90.305C104.833 90.405 104.798 90.485 104.728 90.545C104.668 90.615 104.588 90.65 104.488 90.65H103.783ZM105.643 87.8L109.213 87.77V82.4H106.498V83.63C106.498 84.69 106.423 85.56 106.273 86.24C106.123 86.91 105.913 87.43 105.643 87.8ZM116.422 89.15C115.662 89.15 115.027 89.005 114.517 88.715C114.007 88.425 113.617 88.025 113.347 87.515C113.077 86.995 112.927 86.405 112.897 85.745C112.887 85.575 112.882 85.36 112.882 85.1C112.882 84.83 112.887 84.615 112.897 84.455C112.927 83.785 113.077 83.195 113.347 82.685C113.627 82.175 114.022 81.775 114.532 81.485C115.042 81.195 115.672 81.05 116.422 81.05C117.172 81.05 117.802 81.195 118.312 81.485C118.822 81.775 119.212 82.175 119.482 82.685C119.762 83.195 119.917 83.785 119.947 84.455C119.957 84.615 119.962 84.83 119.962 85.1C119.962 85.36 119.957 85.575 119.947 85.745C119.917 86.405 119.767 86.995 119.497 87.515C119.227 88.025 118.837 88.425 118.327 88.715C117.817 89.005 117.182 89.15 116.422 89.15ZM116.422 87.995C117.042 87.995 117.537 87.8 117.907 87.41C118.277 87.01 118.477 86.43 118.507 85.67C118.517 85.52 118.522 85.33 118.522 85.1C118.522 84.87 118.517 84.68 118.507 84.53C118.477 83.77 118.277 83.195 117.907 82.805C117.537 82.405 117.042 82.205 116.422 82.205C115.802 82.205 115.302 82.405 114.922 82.805C114.552 83.195 114.357 83.77 114.337 84.53C114.327 84.68 114.322 84.87 114.322 85.1C114.322 85.33 114.327 85.52 114.337 85.67C114.357 86.43 114.552 87.01 114.922 87.41C115.302 87.8 115.802 87.995 116.422 87.995ZM128.787 89.15C127.997 89.15 127.327 89.015 126.777 88.745C126.237 88.465 125.822 88.105 125.532 87.665C125.252 87.225 125.102 86.76 125.082 86.27C125.072 86.18 125.097 86.11 125.157 86.06C125.217 86.01 125.292 85.985 125.382 85.985H126.192C126.282 85.985 126.362 86.005 126.432 86.045C126.502 86.085 126.557 86.17 126.597 86.3C126.697 86.67 126.857 86.975 127.077 87.215C127.307 87.445 127.567 87.615 127.857 87.725C128.157 87.825 128.467 87.875 128.787 87.875C129.217 87.875 129.607 87.79 129.957 87.62C130.317 87.44 130.602 87.18 130.812 86.84C131.022 86.49 131.127 86.07 131.127 85.58C131.127 85.13 131.022 84.745 130.812 84.425C130.612 84.095 130.332 83.845 129.972 83.675C129.622 83.495 129.227 83.405 128.787 83.405C128.457 83.405 128.187 83.445 127.977 83.525C127.767 83.605 127.587 83.7 127.437 83.81C127.297 83.92 127.167 84.015 127.047 84.095C126.937 84.175 126.812 84.215 126.672 84.215H125.892C125.802 84.215 125.722 84.185 125.652 84.125C125.582 84.055 125.552 83.975 125.562 83.885L126.042 78.875C126.052 78.755 126.087 78.665 126.147 78.605C126.217 78.535 126.307 78.5 126.417 78.5H131.652C131.752 78.5 131.832 78.535 131.892 78.605C131.962 78.665 131.997 78.745 131.997 78.845V79.43C131.997 79.54 131.962 79.625 131.892 79.685C131.832 79.745 131.752 79.775 131.652 79.775H127.332L127.047 82.73C127.187 82.64 127.412 82.535 127.722 82.415C128.032 82.285 128.457 82.22 128.997 82.22C129.487 82.22 129.947 82.295 130.377 82.445C130.817 82.595 131.207 82.815 131.547 83.105C131.887 83.395 132.152 83.75 132.342 84.17C132.532 84.58 132.627 85.055 132.627 85.595C132.627 86.355 132.457 87 132.117 87.53C131.787 88.06 131.332 88.465 130.752 88.745C130.182 89.015 129.527 89.15 128.787 89.15ZM138.068 89.15C137.378 89.15 136.793 89.045 136.313 88.835C135.843 88.615 135.458 88.315 135.158 87.935C134.858 87.555 134.638 87.12 134.498 86.63C134.368 86.14 134.293 85.62 134.273 85.07C134.263 84.8 134.253 84.515 134.243 84.215C134.243 83.915 134.243 83.615 134.243 83.315C134.253 83.005 134.263 82.71 134.273 82.43C134.283 81.88 134.358 81.36 134.498 80.87C134.648 80.37 134.868 79.935 135.158 79.565C135.458 79.185 135.848 78.89 136.328 78.68C136.808 78.46 137.388 78.35 138.068 78.35C138.758 78.35 139.338 78.46 139.808 78.68C140.288 78.89 140.678 79.185 140.978 79.565C141.278 79.935 141.498 80.37 141.638 80.87C141.788 81.36 141.868 81.88 141.878 82.43C141.888 82.71 141.893 83.005 141.893 83.315C141.903 83.615 141.903 83.915 141.893 84.215C141.893 84.515 141.888 84.8 141.878 85.07C141.868 85.62 141.788 86.14 141.638 86.63C141.498 87.12 141.278 87.555 140.978 87.935C140.688 88.315 140.303 88.615 139.823 88.835C139.353 89.045 138.768 89.15 138.068 89.15ZM138.068 87.875C138.848 87.875 139.423 87.62 139.793 87.11C140.173 86.59 140.368 85.885 140.378 84.995C140.398 84.705 140.408 84.425 140.408 84.155C140.408 83.875 140.408 83.6 140.408 83.33C140.408 83.05 140.398 82.775 140.378 82.505C140.368 81.635 140.173 80.94 139.793 80.42C139.423 79.89 138.848 79.625 138.068 79.625C137.298 79.625 136.723 79.89 136.343 80.42C135.973 80.94 135.778 81.635 135.758 82.505C135.758 82.775 135.753 83.05 135.743 83.33C135.743 83.6 135.743 83.875 135.743 84.155C135.753 84.425 135.758 84.705 135.758 84.995C135.778 85.885 135.978 86.59 136.358 87.11C136.738 87.62 137.308 87.875 138.068 87.875ZM147.589 89.15C146.899 89.15 146.314 89.045 145.834 88.835C145.364 88.615 144.979 88.315 144.679 87.935C144.379 87.555 144.159 87.12 144.019 86.63C143.889 86.14 143.814 85.62 143.794 85.07C143.784 84.8 143.774 84.515 143.764 84.215C143.764 83.915 143.764 83.615 143.764 83.315C143.774 83.005 143.784 82.71 143.794 82.43C143.804 81.88 143.879 81.36 144.019 80.87C144.169 80.37 144.389 79.935 144.679 79.565C144.979 79.185 145.369 78.89 145.849 78.68C146.329 78.46 146.909 78.35 147.589 78.35C148.279 78.35 148.859 78.46 149.329 78.68C149.809 78.89 150.199 79.185 150.499 79.565C150.799 79.935 151.019 80.37 151.159 80.87C151.309 81.36 151.389 81.88 151.399 82.43C151.409 82.71 151.414 83.005 151.414 83.315C151.424 83.615 151.424 83.915 151.414 84.215C151.414 84.515 151.409 84.8 151.399 85.07C151.389 85.62 151.309 86.14 151.159 86.63C151.019 87.12 150.799 87.555 150.499 87.935C150.209 88.315 149.824 88.615 149.344 88.835C148.874 89.045 148.289 89.15 147.589 89.15ZM147.589 87.875C148.369 87.875 148.944 87.62 149.314 87.11C149.694 86.59 149.889 85.885 149.899 84.995C149.919 84.705 149.929 84.425 149.929 84.155C149.929 83.875 149.929 83.6 149.929 83.33C149.929 83.05 149.919 82.775 149.899 82.505C149.889 81.635 149.694 80.94 149.314 80.42C148.944 79.89 148.369 79.625 147.589 79.625C146.819 79.625 146.244 79.89 145.864 80.42C145.494 80.94 145.299 81.635 145.279 82.505C145.279 82.775 145.274 83.05 145.264 83.33C145.264 83.6 145.264 83.875 145.264 84.155C145.274 84.425 145.279 84.705 145.279 84.995C145.299 85.885 145.499 86.59 145.879 87.11C146.259 87.62 146.829 87.875 147.589 87.875ZM157.111 89.15C156.421 89.15 155.836 89.045 155.356 88.835C154.886 88.615 154.501 88.315 154.201 87.935C153.901 87.555 153.681 87.12 153.541 86.63C153.411 86.14 153.336 85.62 153.316 85.07C153.306 84.8 153.296 84.515 153.286 84.215C153.286 83.915 153.286 83.615 153.286 83.315C153.296 83.005 153.306 82.71 153.316 82.43C153.326 81.88 153.401 81.36 153.541 80.87C153.691 80.37 153.911 79.935 154.201 79.565C154.501 79.185 154.891 78.89 155.371 78.68C155.851 78.46 156.431 78.35 157.111 78.35C157.801 78.35 158.381 78.46 158.851 78.68C159.331 78.89 159.721 79.185 160.021 79.565C160.321 79.935 160.541 80.37 160.681 80.87C160.831 81.36 160.911 81.88 160.921 82.43C160.931 82.71 160.936 83.005 160.936 83.315C160.946 83.615 160.946 83.915 160.936 84.215C160.936 84.515 160.931 84.8 160.921 85.07C160.911 85.62 160.831 86.14 160.681 86.63C160.541 87.12 160.321 87.555 160.021 87.935C159.731 88.315 159.346 88.615 158.866 88.835C158.396 89.045 157.811 89.15 157.111 89.15ZM157.111 87.875C157.891 87.875 158.466 87.62 158.836 87.11C159.216 86.59 159.411 85.885 159.421 84.995C159.441 84.705 159.451 84.425 159.451 84.155C159.451 83.875 159.451 83.6 159.451 83.33C159.451 83.05 159.441 82.775 159.421 82.505C159.411 81.635 159.216 80.94 158.836 80.42C158.466 79.89 157.891 79.625 157.111 79.625C156.341 79.625 155.766 79.89 155.386 80.42C155.016 80.94 154.821 81.635 154.801 82.505C154.801 82.775 154.796 83.05 154.786 83.33C154.786 83.6 154.786 83.875 154.786 84.155C154.796 84.425 154.801 84.705 154.801 84.995C154.821 85.885 155.021 86.59 155.401 87.11C155.781 87.62 156.351 87.875 157.111 87.875Z" fill="black"/>
<line x1="14" y1="1" x2="214" y2="1" stroke="black" stroke-width="2"/>
<path d="M20.426 30.18C19.286 30.18 18.308 29.994 17.492 29.622C16.688 29.25 16.058 28.704 15.602 27.984C15.158 27.264 14.912 26.37 14.864 25.302C14.852 24.81 14.846 24.282 14.846 23.718C14.846 23.154 14.852 22.614 14.864 22.098C14.912 21.054 15.164 20.172 15.62 19.452C16.076 18.72 16.712 18.168 17.528 17.796C18.344 17.412 19.31 17.22 20.426 17.22C21.218 17.22 21.95 17.322 22.622 17.526C23.294 17.718 23.882 18.006 24.386 18.39C24.89 18.762 25.28 19.218 25.556 19.758C25.844 20.286 25.994 20.886 26.006 21.558C26.018 21.666 25.982 21.756 25.898 21.828C25.826 21.9 25.736 21.936 25.628 21.936H23.198C23.042 21.936 22.922 21.906 22.838 21.846C22.754 21.774 22.682 21.648 22.622 21.468C22.454 20.832 22.178 20.4 21.794 20.172C21.422 19.932 20.96 19.812 20.408 19.812C19.748 19.812 19.226 19.998 18.842 20.37C18.458 20.73 18.248 21.336 18.212 22.188C18.176 23.172 18.176 24.18 18.212 25.212C18.248 26.064 18.458 26.676 18.842 27.048C19.226 27.408 19.748 27.588 20.408 27.588C20.96 27.588 21.428 27.468 21.812 27.228C22.196 26.988 22.466 26.556 22.622 25.932C22.67 25.752 22.736 25.632 22.82 25.572C22.916 25.5 23.042 25.464 23.198 25.464H25.628C25.736 25.464 25.826 25.5 25.898 25.572C25.982 25.644 26.018 25.734 26.006 25.842C25.994 26.514 25.844 27.12 25.556 27.66C25.28 28.188 24.89 28.644 24.386 29.028C23.882 29.4 23.294 29.688 22.622 29.892C21.95 30.084 21.218 30.18 20.426 30.18ZM30.1667 30C30.0467 30 29.9387 29.958 29.8427 29.874C29.7587 29.79 29.7167 29.682 29.7167 29.55V22.998H26.9807C26.8607 22.998 26.7527 22.956 26.6567 22.872C26.5727 22.788 26.5307 22.68 26.5307 22.548V21.09C26.5307 20.958 26.5727 20.85 26.6567 20.766C26.7527 20.682 26.8607 20.64 26.9807 20.64H35.4407C35.5607 20.64 35.6627 20.682 35.7467 20.766C35.8427 20.85 35.8907 20.958 35.8907 21.09V22.548C35.8907 22.68 35.8427 22.788 35.7467 22.872C35.6627 22.956 35.5607 22.998 35.4407 22.998H32.7047V29.55C32.7047 29.682 32.6627 29.79 32.5787 29.874C32.4947 29.958 32.3867 30 32.2547 30H30.1667ZM41.27 30.18C40.262 30.18 39.41 30.018 38.714 29.694C38.03 29.37 37.502 28.908 37.13 28.308C36.77 27.696 36.566 26.97 36.518 26.13C36.506 25.89 36.5 25.62 36.5 25.32C36.5 25.008 36.506 24.738 36.518 24.51C36.566 23.658 36.782 22.932 37.166 22.332C37.55 21.732 38.084 21.27 38.768 20.946C39.464 20.622 40.298 20.46 41.27 20.46C42.254 20.46 43.088 20.622 43.772 20.946C44.468 21.27 45.008 21.732 45.392 22.332C45.776 22.932 45.992 23.658 46.04 24.51C46.052 24.738 46.058 25.008 46.058 25.32C46.058 25.62 46.052 25.89 46.04 26.13C45.992 26.97 45.782 27.696 45.41 28.308C45.05 28.908 44.522 29.37 43.826 29.694C43.142 30.018 42.29 30.18 41.27 30.18ZM41.27 27.984C41.81 27.984 42.2 27.822 42.44 27.498C42.692 27.174 42.836 26.688 42.872 26.04C42.884 25.86 42.89 25.62 42.89 25.32C42.89 25.02 42.884 24.78 42.872 24.6C42.836 23.964 42.692 23.484 42.44 23.16C42.2 22.824 41.81 22.656 41.27 22.656C40.742 22.656 40.352 22.824 40.1 23.16C39.848 23.484 39.71 23.964 39.686 24.6C39.674 24.78 39.668 25.02 39.668 25.32C39.668 25.62 39.674 25.86 39.686 26.04C39.71 26.688 39.848 27.174 40.1 27.498C40.352 27.822 40.742 27.984 41.27 27.984ZM47.9003 30C47.7803 30 47.6783 29.958 47.5943 29.874C47.5103 29.79 47.4683 29.688 47.4683 29.568V21.09C47.4683 20.958 47.5103 20.85 47.5943 20.766C47.6783 20.682 47.7863 20.64 47.9183 20.64H50.0423C50.1623 20.64 50.2643 20.682 50.3483 20.766C50.4443 20.85 50.4923 20.958 50.4923 21.09V27.66L49.6823 27.264L54.1283 20.928C54.1883 20.844 54.2603 20.778 54.3443 20.73C54.4283 20.67 54.5243 20.64 54.6323 20.64H56.5583C56.6783 20.64 56.7803 20.682 56.8643 20.766C56.9483 20.85 56.9903 20.952 56.9903 21.072V29.55C56.9903 29.682 56.9483 29.79 56.8643 29.874C56.7803 29.958 56.6723 30 56.5403 30H54.4163C54.2843 30 54.1763 29.958 54.0923 29.874C54.0083 29.79 53.9663 29.682 53.9663 29.55V23.178L54.7943 23.34L50.3123 29.712C50.2643 29.796 50.1983 29.868 50.1143 29.928C50.0303 29.976 49.9283 30 49.8083 30H47.9003ZM58.9468 30C58.8508 30 58.7668 29.964 58.6948 29.892C58.6228 29.82 58.5868 29.73 58.5868 29.622V21C58.5868 20.904 58.6228 20.82 58.6948 20.748C58.7668 20.676 58.8508 20.64 58.9468 20.64H61.0168C61.2328 20.64 61.4068 20.748 61.5388 20.964L63.9868 25.338L66.4528 20.964C66.5848 20.748 66.7588 20.64 66.9748 20.64H69.0448C69.1528 20.64 69.2428 20.676 69.3148 20.748C69.3868 20.82 69.4228 20.904 69.4228 21V29.622C69.4228 29.73 69.3868 29.82 69.3148 29.892C69.2428 29.964 69.1528 30 69.0448 30H66.8128C66.7048 30 66.6148 29.964 66.5428 29.892C66.4708 29.82 66.4348 29.73 66.4348 29.622V23.754L67.3168 23.952L64.8868 28.2C64.8268 28.308 64.7548 28.404 64.6708 28.488C64.5988 28.56 64.4908 28.596 64.3468 28.596H63.6268C63.5068 28.596 63.4048 28.56 63.3208 28.488C63.2368 28.416 63.1588 28.32 63.0868 28.2L60.7288 24.06L61.5568 23.88V29.622C61.5568 29.73 61.5208 29.82 61.4488 29.892C61.3768 29.964 61.2868 30 61.1788 30H58.9468ZM75.6802 30.18C74.6722 30.18 73.8202 30.018 73.1242 29.694C72.4402 29.37 71.9122 28.908 71.5402 28.308C71.1802 27.696 70.9762 26.97 70.9282 26.13C70.9162 25.89 70.9102 25.62 70.9102 25.32C70.9102 25.008 70.9162 24.738 70.9282 24.51C70.9762 23.658 71.1922 22.932 71.5762 22.332C71.9602 21.732 72.4942 21.27 73.1782 20.946C73.8742 20.622 74.7082 20.46 75.6802 20.46C76.6642 20.46 77.4982 20.622 78.1822 20.946C78.8782 21.27 79.4182 21.732 79.8022 22.332C80.1862 22.932 80.4022 23.658 80.4502 24.51C80.4622 24.738 80.4682 25.008 80.4682 25.32C80.4682 25.62 80.4622 25.89 80.4502 26.13C80.4022 26.97 80.1922 27.696 79.8202 28.308C79.4602 28.908 78.9322 29.37 78.2362 29.694C77.5522 30.018 76.7002 30.18 75.6802 30.18ZM75.6802 27.984C76.2202 27.984 76.6102 27.822 76.8502 27.498C77.1022 27.174 77.2462 26.688 77.2822 26.04C77.2942 25.86 77.3002 25.62 77.3002 25.32C77.3002 25.02 77.2942 24.78 77.2822 24.6C77.2462 23.964 77.1022 23.484 76.8502 23.16C76.6102 22.824 76.2202 22.656 75.6802 22.656C75.1522 22.656 74.7622 22.824 74.5102 23.16C74.2582 23.484 74.1202 23.964 74.0962 24.6C74.0842 24.78 74.0782 25.02 74.0782 25.32C74.0782 25.62 74.0842 25.86 74.0962 26.04C74.1202 26.688 74.2582 27.174 74.5102 27.498C74.7622 27.822 75.1522 27.984 75.6802 27.984ZM86.1806 30.18C85.2926 30.18 84.5066 30.018 83.8226 29.694C83.1386 29.37 82.5926 28.902 82.1846 28.29C81.7886 27.666 81.5726 26.922 81.5366 26.058C81.5246 25.866 81.5186 25.626 81.5186 25.338C81.5186 25.038 81.5246 24.792 81.5366 24.6C81.5726 23.724 81.7886 22.98 82.1846 22.368C82.5806 21.744 83.1206 21.27 83.8046 20.946C84.5006 20.622 85.2926 20.46 86.1806 20.46C87.0086 20.46 87.7166 20.58 88.3046 20.82C88.8926 21.048 89.3726 21.336 89.7446 21.684C90.1166 22.032 90.3926 22.392 90.5726 22.764C90.7646 23.124 90.8666 23.442 90.8786 23.718C90.8906 23.838 90.8486 23.946 90.7526 24.042C90.6566 24.126 90.5486 24.168 90.4286 24.168H88.1426C88.0106 24.168 87.9086 24.138 87.8366 24.078C87.7646 24.018 87.6986 23.928 87.6386 23.808C87.4946 23.436 87.3086 23.172 87.0806 23.016C86.8646 22.86 86.5826 22.782 86.2346 22.782C85.7546 22.782 85.3826 22.938 85.1186 23.25C84.8666 23.562 84.7286 24.042 84.7046 24.69C84.6926 25.17 84.6926 25.596 84.7046 25.968C84.7286 26.628 84.8666 27.108 85.1186 27.408C85.3826 27.708 85.7546 27.858 86.2346 27.858C86.6066 27.858 86.9006 27.78 87.1166 27.624C87.3326 27.468 87.5066 27.204 87.6386 26.832C87.6986 26.712 87.7646 26.622 87.8366 26.562C87.9086 26.502 88.0106 26.472 88.1426 26.472H90.4286C90.5486 26.472 90.6566 26.52 90.7526 26.616C90.8486 26.7 90.8906 26.802 90.8786 26.922C90.8666 27.126 90.8066 27.366 90.6986 27.642C90.5906 27.906 90.4226 28.188 90.1946 28.488C89.9666 28.788 89.6666 29.07 89.2946 29.334C88.9346 29.586 88.4966 29.79 87.9806 29.946C87.4646 30.102 86.8646 30.18 86.1806 30.18ZM94.9618 30C94.8418 30 94.7338 29.958 94.6378 29.874C94.5538 29.79 94.5118 29.682 94.5118 29.55V22.998H91.7758C91.6558 22.998 91.5478 22.956 91.4518 22.872C91.3678 22.788 91.3258 22.68 91.3258 22.548V21.09C91.3258 20.958 91.3678 20.85 91.4518 20.766C91.5478 20.682 91.6558 20.64 91.7758 20.64H100.236C100.356 20.64 100.458 20.682 100.542 20.766C100.638 20.85 100.686 20.958 100.686 21.09V22.548C100.686 22.68 100.638 22.788 100.542 22.872C100.458 22.956 100.356 22.998 100.236 22.998H97.4998V29.55C97.4998 29.682 97.4578 29.79 97.3738 29.874C97.2898 29.958 97.1818 30 97.0498 30H94.9618ZM102.087 30C101.955 30 101.847 29.958 101.763 29.874C101.679 29.79 101.637 29.682 101.637 29.55V21.09C101.637 20.958 101.679 20.85 101.763 20.766C101.847 20.682 101.955 20.64 102.087 20.64H104.211C104.343 20.64 104.451 20.682 104.535 20.766C104.631 20.85 104.679 20.958 104.679 21.09V23.52H106.389C107.589 23.52 108.519 23.814 109.179 24.402C109.839 24.978 110.169 25.776 110.169 26.796C110.169 27.84 109.827 28.638 109.143 29.19C108.459 29.73 107.505 30 106.281 30H102.087ZM104.607 27.93H106.119C106.587 27.93 106.929 27.846 107.145 27.678C107.361 27.498 107.469 27.204 107.469 26.796C107.469 26.388 107.361 26.082 107.145 25.878C106.929 25.674 106.587 25.572 106.119 25.572H104.607V27.93Z" fill="black"/>
</svg>
