<svg width="1168" height="108" viewBox="0 0 1168 108" fill="none" xmlns="http://www.w3.org/2000/svg">
<rect width="1160" height="100" transform="translate(4 4)" fill="#F0F0F0"/>
<rect x="4" y="4" width="125" height="100" fill="#FFE17F"/>
<g clip-path="url(#clip0_11468_3079)">
<path d="M89.7 54.4L83.2 46.2C82.9 45.8 82.5 45.6 82 45.6H73.7V40.5C73.7 39.7 73 39 72.2 39H44.5C43.7 39 43 39.7 43 40.5C43 41.3 43.7 42 44.5 42H70.7V63.7H58.8C58.2 61.8 56.4 60.4 54.3 60.4C51.7 60.4 49.5 62.6 49.5 65.2C49.5 67.8 51.7 70 54.3 70C56.4 70 58.2 68.6 58.8 66.7H72.2C73 66.7 73.7 66 73.7 65.2V48.6H81.3L87 55.9V63.8H84.8C84.2 61.9 82.4 60.5 80.3 60.5C77.7 60.5 75.5 62.7 75.5 65.3C75.5 67.9 77.6 70.1 80.3 70.1C82.4 70.1 84.2 68.7 84.8 66.8H88.5C89.3 66.8 90 66.1 90 65.3V55.4C90 55 89.9 54.7 89.7 54.4ZM54.3 67C53.3 67 52.5 66.2 52.5 65.2C52.5 64.2 53.3 63.4 54.3 63.4C55.3 63.4 56.1 64.2 56.1 65.2C56.1 66.2 55.2 67 54.3 67ZM80.4 67C79.4 67 78.6 66.2 78.6 65.2C78.6 64.2 79.4 63.4 80.4 63.4C81.4 63.4 82.2 64.2 82.2 65.2C82.2 66.2 81.3 67 80.4 67Z" fill="black"/>
<path d="M62.4 48.6C63.2 48.6 63.9 47.9 63.9 47.1C63.9 46.3 63.2 45.6 62.4 45.6H47.8C47 45.6 46.3 46.3 46.3 47.1C46.3 47.9 47 48.6 47.8 48.6H62.4Z" fill="black"/>
<path d="M60.7 53.7C60.7 52.9 60 52.2 59.2 52.2H44.5C43.7 52.2 43 52.9 43 53.7C43 54.5 43.7 55.2 44.5 55.2H59.2C60 55.2 60.7 54.5 60.7 53.7Z" fill="black"/>
</g>
<path d="M325.732 65.72V60.12H326.532C327.225 60.12 327.752 59.56 328.112 58.44C328.472 57.3067 328.692 55.46 328.772 52.9L328.892 48.8H338.732V60.12H340.672V65.72H337.792V63H328.592V65.72H325.732ZM330.372 60.12H335.452V51.68H331.892L331.832 53.36C331.779 55.1867 331.652 56.6467 331.452 57.74C331.252 58.8333 330.892 59.6267 330.372 60.12ZM352.865 63.12C351.812 63.12 350.852 62.92 349.985 62.52C349.132 62.1067 348.392 61.56 347.765 60.88C347.138 60.1867 346.658 59.4133 346.325 58.56C345.992 57.6933 345.825 56.8 345.825 55.88C345.825 54.9467 345.998 54.0533 346.345 53.2C346.705 52.3333 347.198 51.5667 347.825 50.9C348.465 50.22 349.218 49.6867 350.085 49.3C350.952 48.9133 351.898 48.72 352.925 48.72C353.978 48.72 354.932 48.9267 355.785 49.34C356.652 49.74 357.392 50.2867 358.005 50.98C358.632 51.6733 359.112 52.4533 359.445 53.32C359.778 54.1733 359.945 55.0467 359.945 55.94C359.945 56.8733 359.765 57.7733 359.405 58.64C359.058 59.4933 358.565 60.26 357.925 60.94C357.298 61.6067 356.552 62.14 355.685 62.54C354.832 62.9267 353.892 63.12 352.865 63.12ZM349.165 55.92C349.165 56.6533 349.305 57.3467 349.585 58C349.865 58.64 350.285 59.1667 350.845 59.58C351.405 59.9933 352.085 60.2 352.885 60.2C353.712 60.2 354.398 59.9867 354.945 59.56C355.505 59.1333 355.918 58.5933 356.185 57.94C356.465 57.2733 356.605 56.5867 356.605 55.88C356.605 55.1467 356.458 54.46 356.165 53.82C355.885 53.1667 355.465 52.64 354.905 52.24C354.358 51.84 353.685 51.64 352.885 51.64C352.058 51.64 351.365 51.8533 350.805 52.28C350.258 52.6933 349.845 53.2267 349.565 53.88C349.298 54.5333 349.165 55.2133 349.165 55.92ZM365.02 55.78C365.02 54.9267 365.18 54.08 365.5 53.24C365.82 52.4 366.287 51.64 366.9 50.96C367.514 50.28 368.26 49.74 369.14 49.34C370.02 48.9267 371.02 48.72 372.14 48.72C373.46 48.72 374.614 49.0067 375.6 49.58C376.587 50.1533 377.32 50.9 377.8 51.82L375.28 53.58C375.067 53.0867 374.78 52.7 374.42 52.42C374.06 52.1267 373.674 51.9267 373.26 51.82C372.847 51.7 372.447 51.64 372.06 51.64C371.22 51.64 370.527 51.8533 369.98 52.28C369.434 52.7067 369.027 53.2467 368.76 53.9C368.494 54.5533 368.36 55.22 368.36 55.9C368.36 56.6467 368.514 57.3533 368.82 58.02C369.127 58.6733 369.56 59.2 370.12 59.6C370.68 60 371.34 60.2 372.1 60.2C372.5 60.2 372.907 60.14 373.32 60.02C373.734 59.8867 374.114 59.6733 374.46 59.38C374.82 59.0867 375.094 58.7067 375.28 58.24L377.96 59.82C377.68 60.5267 377.22 61.1267 376.58 61.62C375.94 62.1 375.214 62.4733 374.4 62.74C373.6 62.9933 372.807 63.12 372.02 63.12C370.994 63.12 370.054 62.9133 369.2 62.5C368.347 62.0733 367.607 61.5133 366.98 60.82C366.354 60.1133 365.867 59.3267 365.52 58.46C365.187 57.58 365.02 56.6867 365.02 55.78ZM394.43 51.68H390.11V63H386.83V51.68H382.49V48.8H394.43V51.68ZM402.323 48.8H405.863L410.743 63H407.383L406.283 59.82H401.863L400.783 63H397.423L402.323 48.8ZM405.743 57.56L404.083 52.1L402.383 57.56H405.743ZM427.881 59.36C427.881 60.1733 427.661 60.8533 427.221 61.4C426.781 61.9333 426.195 62.3333 425.461 62.6C424.741 62.8667 423.941 63 423.061 63H416.141V48.8H424.041C424.708 48.8 425.281 48.98 425.761 49.34C426.241 49.6867 426.615 50.14 426.881 50.7C427.148 51.26 427.281 51.84 427.281 52.44C427.281 53.1067 427.108 53.7467 426.761 54.36C426.415 54.9733 425.908 55.4267 425.241 55.72C426.041 55.96 426.681 56.3867 427.161 57C427.641 57.6133 427.881 58.4 427.881 59.36ZM419.421 51.6V54.54H422.641C423.001 54.54 423.321 54.42 423.601 54.18C423.881 53.94 424.021 53.5667 424.021 53.06C424.021 52.5933 423.895 52.2333 423.641 51.98C423.401 51.7267 423.108 51.6 422.761 51.6H419.421ZM424.541 58.7C424.541 58.26 424.415 57.8867 424.161 57.58C423.908 57.2733 423.588 57.12 423.201 57.12H419.421V60.22H423.061C423.475 60.22 423.821 60.08 424.101 59.8C424.395 59.5067 424.541 59.14 424.541 58.7ZM433.893 63V48.8H437.173V58.34L443.293 48.8H446.353V63H443.073V53.52L437.033 63H433.893ZM464.365 63V54.54L461.305 60.7H459.505L456.445 54.54V63H453.165V48.8H456.725L460.405 56.22L464.105 48.8H467.645V63H464.365ZM483.04 63V48.8H489.1C489.78 48.8 490.4 48.94 490.96 49.22C491.533 49.4867 492.026 49.8533 492.44 50.32C492.853 50.7733 493.173 51.2867 493.4 51.86C493.626 52.4333 493.74 53.0133 493.74 53.6C493.74 54.4267 493.546 55.2067 493.16 55.94C492.786 56.6733 492.26 57.2733 491.58 57.74C490.9 58.1933 490.106 58.42 489.2 58.42H486.32V63H483.04ZM486.32 55.56H489C489.386 55.56 489.72 55.3933 490 55.06C490.28 54.7267 490.42 54.24 490.42 53.6C490.42 52.9467 490.253 52.4667 489.92 52.16C489.6 51.84 489.253 51.68 488.88 51.68H486.32V55.56ZM509.481 60.12V63H499.501V48.8H509.301V51.68H502.781V54.44H508.381V57.1H502.781V60.12H509.481ZM514.673 65.72V60.12H515.473C516.167 60.12 516.693 59.56 517.053 58.44C517.413 57.3067 517.633 55.46 517.713 52.9L517.833 48.8H527.673V60.12H529.613V65.72H526.733V63H517.533V65.72H514.673ZM519.313 60.12H524.393V51.68H520.833L520.773 53.36C520.72 55.1867 520.593 56.6467 520.393 57.74C520.193 58.8333 519.833 59.6267 519.313 60.12ZM535.647 63V48.8H538.907V54.3H540.027L543.987 48.8H547.627L542.547 55.66L548.067 63H544.087L539.927 57.28H538.907V63H535.647ZM553.846 63V48.8H557.126V58.34L563.246 48.8H566.306V63H563.026V53.52L556.986 63H553.846ZM573.198 63V48.8H576.478V58.34L582.598 48.8H585.658V63H582.378V53.52L576.338 63H573.198ZM579.438 48.04C578.638 48.04 577.938 47.9067 577.338 47.64C576.738 47.36 576.271 46.9867 575.938 46.52C575.604 46.04 575.438 45.5 575.438 44.9H577.618C577.618 45.3133 577.764 45.6733 578.058 45.98C578.364 46.2867 578.831 46.44 579.458 46.44C580.044 46.44 580.491 46.2933 580.798 46C581.118 45.7067 581.278 45.34 581.278 44.9H583.458C583.458 45.5 583.291 46.04 582.958 46.52C582.624 46.9867 582.151 47.36 581.538 47.64C580.938 47.9067 580.238 48.04 579.438 48.04ZM611.371 51.68H607.051V63H603.771V51.68H599.431V48.8H611.371V51.68ZM622.92 63.12C621.867 63.12 620.907 62.92 620.04 62.52C619.187 62.1067 618.447 61.56 617.82 60.88C617.193 60.1867 616.713 59.4133 616.38 58.56C616.047 57.6933 615.88 56.8 615.88 55.88C615.88 54.9467 616.053 54.0533 616.4 53.2C616.76 52.3333 617.253 51.5667 617.88 50.9C618.52 50.22 619.273 49.6867 620.14 49.3C621.007 48.9133 621.953 48.72 622.98 48.72C624.033 48.72 624.987 48.9267 625.84 49.34C626.707 49.74 627.447 50.2867 628.06 50.98C628.687 51.6733 629.167 52.4533 629.5 53.32C629.833 54.1733 630 55.0467 630 55.94C630 56.8733 629.82 57.7733 629.46 58.64C629.113 59.4933 628.62 60.26 627.98 60.94C627.353 61.6067 626.607 62.14 625.74 62.54C624.887 62.9267 623.947 63.12 622.92 63.12ZM619.22 55.92C619.22 56.6533 619.36 57.3467 619.64 58C619.92 58.64 620.34 59.1667 620.9 59.58C621.46 59.9933 622.14 60.2 622.94 60.2C623.767 60.2 624.453 59.9867 625 59.56C625.56 59.1333 625.973 58.5933 626.24 57.94C626.52 57.2733 626.66 56.5867 626.66 55.88C626.66 55.1467 626.513 54.46 626.22 53.82C625.94 53.1667 625.52 52.64 624.96 52.24C624.413 51.84 623.74 51.64 622.94 51.64C622.113 51.64 621.42 51.8533 620.86 52.28C620.313 52.6933 619.9 53.2267 619.62 53.88C619.353 54.5333 619.22 55.2133 619.22 55.92ZM647.635 59.36C647.635 60.1733 647.415 60.8533 646.975 61.4C646.535 61.9333 645.948 62.3333 645.215 62.6C644.495 62.8667 643.695 63 642.815 63H635.895V48.8H643.795C644.462 48.8 645.035 48.98 645.515 49.34C645.995 49.6867 646.368 50.14 646.635 50.7C646.902 51.26 647.035 51.84 647.035 52.44C647.035 53.1067 646.862 53.7467 646.515 54.36C646.168 54.9733 645.662 55.4267 644.995 55.72C645.795 55.96 646.435 56.3867 646.915 57C647.395 57.6133 647.635 58.4 647.635 59.36ZM639.175 51.6V54.54H642.395C642.755 54.54 643.075 54.42 643.355 54.18C643.635 53.94 643.775 53.5667 643.775 53.06C643.775 52.5933 643.648 52.2333 643.395 51.98C643.155 51.7267 642.862 51.6 642.515 51.6H639.175ZM644.295 58.7C644.295 58.26 644.168 57.8867 643.915 57.58C643.662 57.2733 643.342 57.12 642.955 57.12H639.175V60.22H642.815C643.228 60.22 643.575 60.08 643.855 59.8C644.148 59.5067 644.295 59.14 644.295 58.7ZM656.835 48.8H660.375L665.255 63H661.895L660.795 59.82H656.375L655.295 63H651.935L656.835 48.8ZM660.255 57.56L658.595 52.1L656.895 57.56H660.255ZM670.653 63V48.8H676.713C677.393 48.8 678.013 48.94 678.573 49.22C679.146 49.4867 679.64 49.8533 680.053 50.32C680.466 50.7733 680.786 51.2867 681.013 51.86C681.24 52.4333 681.353 53.0133 681.353 53.6C681.353 54.4267 681.16 55.2067 680.773 55.94C680.4 56.6733 679.873 57.2733 679.193 57.74C678.513 58.1933 677.72 58.42 676.813 58.42H673.933V63H670.653ZM673.933 55.56H676.613C677 55.56 677.333 55.3933 677.613 55.06C677.893 54.7267 678.033 54.24 678.033 53.6C678.033 52.9467 677.866 52.4667 677.533 52.16C677.213 51.84 676.866 51.68 676.493 51.68H673.933V55.56ZM695.842 63V48.8H707.662V63H704.382V51.68H699.122V63H695.842ZM720.67 63.12C719.617 63.12 718.657 62.92 717.79 62.52C716.937 62.1067 716.197 61.56 715.57 60.88C714.943 60.1867 714.463 59.4133 714.13 58.56C713.797 57.6933 713.63 56.8 713.63 55.88C713.63 54.9467 713.803 54.0533 714.15 53.2C714.51 52.3333 715.003 51.5667 715.63 50.9C716.27 50.22 717.023 49.6867 717.89 49.3C718.757 48.9133 719.703 48.72 720.73 48.72C721.783 48.72 722.737 48.9267 723.59 49.34C724.457 49.74 725.197 50.2867 725.81 50.98C726.437 51.6733 726.917 52.4533 727.25 53.32C727.583 54.1733 727.75 55.0467 727.75 55.94C727.75 56.8733 727.57 57.7733 727.21 58.64C726.863 59.4933 726.37 60.26 725.73 60.94C725.103 61.6067 724.357 62.14 723.49 62.54C722.637 62.9267 721.697 63.12 720.67 63.12ZM716.97 55.92C716.97 56.6533 717.11 57.3467 717.39 58C717.67 58.64 718.09 59.1667 718.65 59.58C719.21 59.9933 719.89 60.2 720.69 60.2C721.517 60.2 722.203 59.9867 722.75 59.56C723.31 59.1333 723.723 58.5933 723.99 57.94C724.27 57.2733 724.41 56.5867 724.41 55.88C724.41 55.1467 724.263 54.46 723.97 53.82C723.69 53.1667 723.27 52.64 722.71 52.24C722.163 51.84 721.49 51.64 720.69 51.64C719.863 51.64 719.17 51.8533 718.61 52.28C718.063 52.6933 717.65 53.2267 717.37 53.88C717.103 54.5333 716.97 55.2133 716.97 55.92ZM732.845 65.72V60.12H733.645C734.338 60.12 734.865 59.56 735.225 58.44C735.585 57.3067 735.805 55.46 735.885 52.9L736.005 48.8H745.845V60.12H747.785V65.72H744.905V63H735.705V65.72H732.845ZM737.485 60.12H742.565V51.68H739.005L738.945 53.36C738.892 55.1867 738.765 56.6467 738.565 57.74C738.365 58.8333 738.005 59.6267 737.485 60.12ZM767.406 63.14C766.18 63.14 765.073 62.8933 764.086 62.4C763.113 61.9067 762.34 61.22 761.766 60.34L764.226 58.82C764.546 59.3133 764.966 59.7067 765.486 60C766.02 60.28 766.633 60.42 767.326 60.42C768.113 60.42 768.686 60.2667 769.046 59.96C769.406 59.64 769.586 59.2267 769.586 58.72C769.586 58.2133 769.413 57.8067 769.066 57.5C768.72 57.1933 768.16 57.04 767.386 57.04H765.566V54.58H767.406C768.02 54.58 768.473 54.4467 768.766 54.18C769.06 53.9133 769.206 53.5533 769.206 53.1C769.206 52.66 769.046 52.3067 768.726 52.04C768.42 51.76 767.913 51.62 767.206 51.62C766.446 51.62 765.806 51.76 765.286 52.04C764.78 52.32 764.393 52.68 764.126 53.12L761.746 51.44C762.346 50.6267 763.086 49.9667 763.966 49.46C764.846 48.9533 765.973 48.7 767.346 48.7C768.92 48.7 770.153 49.0333 771.046 49.7C771.94 50.3667 772.386 51.3333 772.386 52.6C772.386 53.2133 772.233 53.8067 771.926 54.38C771.633 54.94 771.14 55.38 770.446 55.7C771.233 55.9267 771.84 56.34 772.266 56.94C772.693 57.54 772.906 58.24 772.906 59.04C772.906 59.9333 772.666 60.6867 772.186 61.3C771.706 61.9 771.053 62.36 770.226 62.68C769.4 62.9867 768.46 63.14 767.406 63.14ZM782.253 48.8H785.793L790.673 63H787.312L786.213 59.82H781.793L780.713 63H777.353L782.253 48.8ZM785.673 57.56L784.013 52.1L782.312 57.56H785.673ZM796.131 63V48.8H799.391V54.3H800.511L804.471 48.8H808.111L803.031 55.66L808.551 63H804.571L800.411 57.28H799.391V63H796.131ZM817.831 48.8H821.371L826.251 63H822.891L821.791 59.82H817.371L816.291 63H812.931L817.831 48.8ZM821.251 57.56L819.591 52.1L817.891 57.56H821.251ZM836.59 63.14C835.363 63.14 834.257 62.8933 833.27 62.4C832.297 61.9067 831.523 61.22 830.95 60.34L833.41 58.82C833.73 59.3133 834.15 59.7067 834.67 60C835.203 60.28 835.817 60.42 836.51 60.42C837.297 60.42 837.87 60.2667 838.23 59.96C838.59 59.64 838.77 59.2267 838.77 58.72C838.77 58.2133 838.597 57.8067 838.25 57.5C837.903 57.1933 837.343 57.04 836.57 57.04H834.75V54.58H836.59C837.203 54.58 837.657 54.4467 837.95 54.18C838.243 53.9133 838.39 53.5533 838.39 53.1C838.39 52.66 838.23 52.3067 837.91 52.04C837.603 51.76 837.097 51.62 836.39 51.62C835.63 51.62 834.99 51.76 834.47 52.04C833.963 52.32 833.577 52.68 833.31 53.12L830.93 51.44C831.53 50.6267 832.27 49.9667 833.15 49.46C834.03 48.9533 835.157 48.7 836.53 48.7C838.103 48.7 839.337 49.0333 840.23 49.7C841.123 50.3667 841.57 51.3333 841.57 52.6C841.57 53.2133 841.417 53.8067 841.11 54.38C840.817 54.94 840.323 55.38 839.63 55.7C840.417 55.9267 841.023 56.34 841.45 56.94C841.877 57.54 842.09 58.24 842.09 59.04C842.09 59.9333 841.85 60.6867 841.37 61.3C840.89 61.9 840.237 62.36 839.41 62.68C838.583 62.9867 837.643 63.14 836.59 63.14Z" fill="black"/>
<circle cx="1101.5" cy="54" r="20" fill="#DCDCDC" fill-opacity="0.5"/>
<g opacity="0.3">
<path d="M1102 48H1100V50H1102V48Z" fill="black"/>
<path d="M1102 52H1100V60H1102V52Z" fill="black"/>
</g>
<rect x="1" y="1" width="1166" height="106" stroke="#AF4FFF" stroke-width="2"/>
<defs>
<clipPath id="clip0_11468_3079">
<rect width="47" height="31" fill="white" transform="translate(43 39)"/>
</clipPath>
</defs>
</svg>
